<svg width="64" height="64" viewBox="0 0 64 64" fill="none" xmlns="http://www.w3.org/2000/svg">
<path fill-rule="evenodd" clip-rule="evenodd" d="M32 64C49.6731 64 64 49.6731 64 32C64 14.3269 49.6731 0 32 0C14.3269 0 0 14.3269 0 32C0 49.6731 14.3269 64 32 64ZM32.3556 11.3778V32L32.3556 52.6222L33.703 45.2863C34.8093 39.2633 39.6467 34.6247 45.7107 33.7719L58.3111 32L45.7107 30.2281C39.6466 29.3753 34.8093 24.7367 33.703 18.7137L32.3556 11.3778ZM32.3555 11.3778V32L32.3556 52.6222L31.0081 45.2863C29.9019 39.2633 25.0645 34.6247 19.0004 33.7719L6.40014 32L6.4 32L19.0004 30.2281C25.0645 29.3753 29.9019 24.7367 31.0081 18.7137L32.3555 11.3778Z" fill="white"/>
</svg>
