<svg width="256" height="256" viewBox="0 0 256 256" fill="none" xmlns="http://www.w3.org/2000/svg">
<rect width="256" height="256" fill="black"/>
<path fill-rule="evenodd" clip-rule="evenodd" d="M128.001 218C177.707 218 218.001 177.706 218.001 128C218.001 78.2944 177.707 38 128.001 38C78.2953 38 38.001 78.2944 38.001 128C38.001 177.706 78.2953 218 128.001 218ZM129.001 70V128V186L132.791 165.368C135.902 148.428 149.507 135.382 166.562 132.984L202.001 128L166.562 123.016C149.507 120.618 135.902 107.572 132.791 90.6322L129.001 70ZM129.001 70V128V186L125.211 165.368C122.1 148.428 108.495 135.382 91.4397 132.984L56.001 128L91.4397 123.016C108.495 120.618 122.1 107.572 125.211 90.6323L129.001 70Z" fill="white"/>
</svg>
